<mxfile host="app.diagrams.net" modified="2024-03-04T08:17:29.767Z" agent="Mozilla/5.0 (Windows NT 10.0; Win64; x64) AppleWebKit/537.36 (KHTML, like Gecko) Chrome/122.0.0.0 Safari/537.36" etag="-GzCLyKB21V-H47t3H-a" version="23.1.7" type="github">
  <diagram name="第 1 页" id="tq1g2cyM6BhT83cFnmIZ">
    <mxGraphModel dx="2261" dy="737" grid="1" gridSize="10" guides="1" tooltips="1" connect="1" arrows="1" fold="1" page="1" pageScale="1" pageWidth="827" pageHeight="1169" math="0" shadow="0">
      <root>
        <mxCell id="0" />
        <mxCell id="1" parent="0" />
        <mxCell id="Ak8-80K1fLozTTYAxMIB-15" style="rounded=0;orthogonalLoop=1;jettySize=auto;html=1;exitX=0.5;exitY=1;exitDx=0;exitDy=0;entryX=0.5;entryY=0;entryDx=0;entryDy=0;endArrow=none;endFill=0;" edge="1" parent="1" source="Ak8-80K1fLozTTYAxMIB-1" target="Ak8-80K1fLozTTYAxMIB-2">
          <mxGeometry relative="1" as="geometry" />
        </mxCell>
        <mxCell id="Ak8-80K1fLozTTYAxMIB-16" style="rounded=0;orthogonalLoop=1;jettySize=auto;html=1;exitX=0.5;exitY=1;exitDx=0;exitDy=0;entryX=0.5;entryY=0;entryDx=0;entryDy=0;endArrow=none;endFill=0;" edge="1" parent="1" source="Ak8-80K1fLozTTYAxMIB-1" target="Ak8-80K1fLozTTYAxMIB-3">
          <mxGeometry relative="1" as="geometry" />
        </mxCell>
        <mxCell id="Ak8-80K1fLozTTYAxMIB-1" value="X&amp;lt;0.382X" style="ellipse;whiteSpace=wrap;html=1;labelBackgroundColor=#999999;fillColor=#999999;" vertex="1" parent="1">
          <mxGeometry x="130" y="200" width="120" height="50" as="geometry" />
        </mxCell>
        <mxCell id="Ak8-80K1fLozTTYAxMIB-29" style="rounded=0;orthogonalLoop=1;jettySize=auto;html=1;exitX=0.5;exitY=1;exitDx=0;exitDy=0;entryX=0.5;entryY=0;entryDx=0;entryDy=0;endArrow=none;endFill=0;" edge="1" parent="1" source="Ak8-80K1fLozTTYAxMIB-2" target="Ak8-80K1fLozTTYAxMIB-19">
          <mxGeometry relative="1" as="geometry" />
        </mxCell>
        <mxCell id="Ak8-80K1fLozTTYAxMIB-30" style="rounded=0;orthogonalLoop=1;jettySize=auto;html=1;exitX=0.5;exitY=1;exitDx=0;exitDy=0;entryX=0.5;entryY=0;entryDx=0;entryDy=0;endArrow=none;endFill=0;" edge="1" parent="1" source="Ak8-80K1fLozTTYAxMIB-2" target="Ak8-80K1fLozTTYAxMIB-18">
          <mxGeometry relative="1" as="geometry" />
        </mxCell>
        <mxCell id="Ak8-80K1fLozTTYAxMIB-2" value="X&amp;lt;0.382X" style="ellipse;whiteSpace=wrap;html=1;fillColor=#999999;" vertex="1" parent="1">
          <mxGeometry x="-30" y="310" width="120" height="50" as="geometry" />
        </mxCell>
        <mxCell id="Ak8-80K1fLozTTYAxMIB-32" style="rounded=0;orthogonalLoop=1;jettySize=auto;html=1;exitX=0.5;exitY=1;exitDx=0;exitDy=0;entryX=0.5;entryY=0;entryDx=0;entryDy=0;endArrow=none;endFill=0;" edge="1" parent="1" source="Ak8-80K1fLozTTYAxMIB-3" target="Ak8-80K1fLozTTYAxMIB-31">
          <mxGeometry relative="1" as="geometry" />
        </mxCell>
        <mxCell id="Ak8-80K1fLozTTYAxMIB-33" style="rounded=0;orthogonalLoop=1;jettySize=auto;html=1;exitX=0.5;exitY=1;exitDx=0;exitDy=0;entryX=0.5;entryY=0;entryDx=0;entryDy=0;endArrow=none;endFill=0;" edge="1" parent="1" source="Ak8-80K1fLozTTYAxMIB-3" target="Ak8-80K1fLozTTYAxMIB-40">
          <mxGeometry relative="1" as="geometry">
            <mxPoint x="280" y="410" as="targetPoint" />
          </mxGeometry>
        </mxCell>
        <mxCell id="Ak8-80K1fLozTTYAxMIB-3" value="X&amp;lt;0.382X" style="ellipse;whiteSpace=wrap;html=1;fillColor=#999999;" vertex="1" parent="1">
          <mxGeometry x="280" y="310" width="120" height="50" as="geometry" />
        </mxCell>
        <mxCell id="Ak8-80K1fLozTTYAxMIB-13" value="" style="edgeStyle=orthogonalEdgeStyle;rounded=0;orthogonalLoop=1;jettySize=auto;html=1;shape=flexArrow;" edge="1" parent="1" source="Ak8-80K1fLozTTYAxMIB-5" target="Ak8-80K1fLozTTYAxMIB-1">
          <mxGeometry relative="1" as="geometry" />
        </mxCell>
        <mxCell id="Ak8-80K1fLozTTYAxMIB-5" value="" style="rounded=0;whiteSpace=wrap;html=1;" vertex="1" parent="1">
          <mxGeometry x="-160" y="195" width="210" height="60" as="geometry" />
        </mxCell>
        <mxCell id="Ak8-80K1fLozTTYAxMIB-6" value="D&lt;sub&gt;1&lt;/sub&gt;" style="ellipse;whiteSpace=wrap;html=1;aspect=fixed;" vertex="1" parent="1">
          <mxGeometry x="-150" y="205" width="40" height="40" as="geometry" />
        </mxCell>
        <mxCell id="Ak8-80K1fLozTTYAxMIB-7" value="D&lt;sub&gt;2&lt;/sub&gt;" style="ellipse;whiteSpace=wrap;html=1;aspect=fixed;" vertex="1" parent="1">
          <mxGeometry x="-100" y="205" width="40" height="40" as="geometry" />
        </mxCell>
        <mxCell id="Ak8-80K1fLozTTYAxMIB-8" value="D&lt;span style=&quot;font-size: 10px;&quot;&gt;3&lt;/span&gt;" style="ellipse;whiteSpace=wrap;html=1;aspect=fixed;" vertex="1" parent="1">
          <mxGeometry x="-50" y="205" width="40" height="40" as="geometry" />
        </mxCell>
        <mxCell id="Ak8-80K1fLozTTYAxMIB-10" value="D&lt;span style=&quot;font-size: 10px;&quot;&gt;4&lt;/span&gt;" style="ellipse;whiteSpace=wrap;html=1;aspect=fixed;" vertex="1" parent="1">
          <mxGeometry y="205" width="40" height="40" as="geometry" />
        </mxCell>
        <mxCell id="Ak8-80K1fLozTTYAxMIB-14" value="Input" style="text;html=1;align=center;verticalAlign=middle;resizable=0;points=[];autosize=1;strokeColor=none;fillColor=none;" vertex="1" parent="1">
          <mxGeometry x="50" y="195" width="50" height="30" as="geometry" />
        </mxCell>
        <mxCell id="Ak8-80K1fLozTTYAxMIB-43" style="rounded=0;orthogonalLoop=1;jettySize=auto;html=1;exitX=0.5;exitY=1;exitDx=0;exitDy=0;endArrow=none;endFill=0;entryX=0.5;entryY=0;entryDx=0;entryDy=0;" edge="1" parent="1" source="Ak8-80K1fLozTTYAxMIB-18" target="Ak8-80K1fLozTTYAxMIB-23">
          <mxGeometry relative="1" as="geometry" />
        </mxCell>
        <mxCell id="Ak8-80K1fLozTTYAxMIB-18" value="X&amp;lt;0.382X" style="ellipse;whiteSpace=wrap;html=1;fillColor=#999999;" vertex="1" parent="1">
          <mxGeometry x="-130" y="410" width="120" height="50" as="geometry" />
        </mxCell>
        <mxCell id="Ak8-80K1fLozTTYAxMIB-19" value="&lt;b&gt;·&lt;/b&gt;&lt;b style=&quot;border-color: var(--border-color);&quot;&gt;·&lt;/b&gt;&lt;b style=&quot;border-color: var(--border-color);&quot;&gt;·&lt;/b&gt;" style="ellipse;whiteSpace=wrap;html=1;" vertex="1" parent="1">
          <mxGeometry x="50" y="410" width="120" height="50" as="geometry" />
        </mxCell>
        <mxCell id="Ak8-80K1fLozTTYAxMIB-22" value="L2" style="rounded=0;whiteSpace=wrap;html=1;" vertex="1" parent="1">
          <mxGeometry x="-55" y="500" width="50" height="40" as="geometry" />
        </mxCell>
        <mxCell id="Ak8-80K1fLozTTYAxMIB-23" value="L1" style="rounded=0;whiteSpace=wrap;html=1;" vertex="1" parent="1">
          <mxGeometry x="-140" y="500" width="50" height="40" as="geometry" />
        </mxCell>
        <mxCell id="Ak8-80K1fLozTTYAxMIB-24" value="" style="endArrow=classic;html=1;rounded=0;dashed=1;dashPattern=12 12;" edge="1" parent="1" source="Ak8-80K1fLozTTYAxMIB-1">
          <mxGeometry width="50" height="50" relative="1" as="geometry">
            <mxPoint x="-230" y="420" as="sourcePoint" />
            <mxPoint y="300" as="targetPoint" />
          </mxGeometry>
        </mxCell>
        <mxCell id="Ak8-80K1fLozTTYAxMIB-25" value="D&lt;sub&gt;1&lt;/sub&gt;,D&lt;span style=&quot;font-size: 10px;&quot;&gt;2&lt;/span&gt;,D&lt;span style=&quot;font-size: 10px;&quot;&gt;3&lt;/span&gt;" style="text;html=1;align=center;verticalAlign=middle;resizable=0;points=[];autosize=1;strokeColor=none;fillColor=none;" vertex="1" parent="1">
          <mxGeometry x="55" y="238" width="70" height="30" as="geometry" />
        </mxCell>
        <mxCell id="Ak8-80K1fLozTTYAxMIB-26" value="" style="endArrow=classic;html=1;rounded=0;dashed=1;dashPattern=12 12;exitX=1;exitY=1;exitDx=0;exitDy=0;" edge="1" parent="1" source="Ak8-80K1fLozTTYAxMIB-1">
          <mxGeometry width="50" height="50" relative="1" as="geometry">
            <mxPoint x="156" y="252" as="sourcePoint" />
            <mxPoint x="370" y="300" as="targetPoint" />
          </mxGeometry>
        </mxCell>
        <mxCell id="Ak8-80K1fLozTTYAxMIB-27" value="L3" style="rounded=0;whiteSpace=wrap;html=1;dashed=1;" vertex="1" parent="1">
          <mxGeometry x="40" y="500" width="50" height="40" as="geometry" />
        </mxCell>
        <mxCell id="Ak8-80K1fLozTTYAxMIB-28" value="L4" style="rounded=0;whiteSpace=wrap;html=1;" vertex="1" parent="1">
          <mxGeometry x="140" y="500" width="50" height="40" as="geometry" />
        </mxCell>
        <mxCell id="Ak8-80K1fLozTTYAxMIB-31" value="L6" style="rounded=0;whiteSpace=wrap;html=1;dashed=1;" vertex="1" parent="1">
          <mxGeometry x="389" y="420" width="50" height="40" as="geometry" />
        </mxCell>
        <mxCell id="Ak8-80K1fLozTTYAxMIB-34" value="D&lt;span style=&quot;font-size: 10px;&quot;&gt;4&lt;/span&gt;" style="text;html=1;align=center;verticalAlign=middle;resizable=0;points=[];autosize=1;strokeColor=none;fillColor=none;" vertex="1" parent="1">
          <mxGeometry x="270" y="238" width="40" height="30" as="geometry" />
        </mxCell>
        <mxCell id="Ak8-80K1fLozTTYAxMIB-35" value="" style="endArrow=classic;html=1;rounded=0;exitX=0.392;exitY=0.96;exitDx=0;exitDy=0;exitPerimeter=0;entryX=0;entryY=0;entryDx=0;entryDy=0;dashed=1;dashPattern=12 12;" edge="1" parent="1" source="Ak8-80K1fLozTTYAxMIB-3" target="Ak8-80K1fLozTTYAxMIB-40">
          <mxGeometry width="50" height="50" relative="1" as="geometry">
            <mxPoint x="270" y="660" as="sourcePoint" />
            <mxPoint x="250" y="410" as="targetPoint" />
          </mxGeometry>
        </mxCell>
        <mxCell id="Ak8-80K1fLozTTYAxMIB-36" value="" style="endArrow=classic;html=1;rounded=0;exitX=0.242;exitY=0.94;exitDx=0;exitDy=0;dashed=1;dashPattern=12 12;exitPerimeter=0;" edge="1" parent="1" source="Ak8-80K1fLozTTYAxMIB-2">
          <mxGeometry width="50" height="50" relative="1" as="geometry">
            <mxPoint x="317" y="371" as="sourcePoint" />
            <mxPoint x="-110" y="410" as="targetPoint" />
          </mxGeometry>
        </mxCell>
        <mxCell id="Ak8-80K1fLozTTYAxMIB-38" value="" style="endArrow=classic;html=1;rounded=0;exitX=0.758;exitY=0.94;exitDx=0;exitDy=0;dashed=1;dashPattern=12 12;entryX=0.908;entryY=0.16;entryDx=0;entryDy=0;entryPerimeter=0;exitPerimeter=0;" edge="1" parent="1" source="Ak8-80K1fLozTTYAxMIB-2" target="Ak8-80K1fLozTTYAxMIB-19">
          <mxGeometry width="50" height="50" relative="1" as="geometry">
            <mxPoint x="-2" y="363" as="sourcePoint" />
            <mxPoint x="-100" y="420" as="targetPoint" />
          </mxGeometry>
        </mxCell>
        <mxCell id="Ak8-80K1fLozTTYAxMIB-39" value="&lt;b&gt;Drop&lt;/b&gt;" style="text;html=1;align=center;verticalAlign=middle;resizable=0;points=[];autosize=1;strokeColor=none;fillColor=none;" vertex="1" parent="1">
          <mxGeometry x="388.5" y="460" width="50" height="30" as="geometry" />
        </mxCell>
        <mxCell id="Ak8-80K1fLozTTYAxMIB-40" value="L5" style="rounded=0;whiteSpace=wrap;html=1;" vertex="1" parent="1">
          <mxGeometry x="240" y="420" width="50" height="40" as="geometry" />
        </mxCell>
        <mxCell id="Ak8-80K1fLozTTYAxMIB-41" value="D&lt;sub style=&quot;border-color: var(--border-color);&quot;&gt;1&lt;/sub&gt;,D&lt;span style=&quot;font-size: 10px;&quot;&gt;2&lt;/span&gt;" style="text;html=1;align=center;verticalAlign=middle;resizable=0;points=[];autosize=1;strokeColor=none;fillColor=none;" vertex="1" parent="1">
          <mxGeometry x="-100" y="338" width="60" height="30" as="geometry" />
        </mxCell>
        <mxCell id="Ak8-80K1fLozTTYAxMIB-42" value="D&lt;span style=&quot;font-size: 10px;&quot;&gt;3&lt;/span&gt;" style="text;html=1;align=center;verticalAlign=middle;resizable=0;points=[];autosize=1;strokeColor=none;fillColor=none;" vertex="1" parent="1">
          <mxGeometry x="115" y="360" width="40" height="30" as="geometry" />
        </mxCell>
        <mxCell id="Ak8-80K1fLozTTYAxMIB-44" style="rounded=0;orthogonalLoop=1;jettySize=auto;html=1;exitX=0.5;exitY=1;exitDx=0;exitDy=0;endArrow=none;endFill=0;entryX=0.5;entryY=0;entryDx=0;entryDy=0;" edge="1" parent="1" source="Ak8-80K1fLozTTYAxMIB-18" target="Ak8-80K1fLozTTYAxMIB-22">
          <mxGeometry relative="1" as="geometry">
            <mxPoint x="-60" y="470" as="sourcePoint" />
            <mxPoint x="-105" y="510" as="targetPoint" />
          </mxGeometry>
        </mxCell>
        <mxCell id="Ak8-80K1fLozTTYAxMIB-45" style="rounded=0;orthogonalLoop=1;jettySize=auto;html=1;exitX=0.5;exitY=1;exitDx=0;exitDy=0;endArrow=none;endFill=0;entryX=0.5;entryY=0;entryDx=0;entryDy=0;" edge="1" parent="1" source="Ak8-80K1fLozTTYAxMIB-19" target="Ak8-80K1fLozTTYAxMIB-27">
          <mxGeometry relative="1" as="geometry">
            <mxPoint x="-50" y="480" as="sourcePoint" />
            <mxPoint x="-95" y="520" as="targetPoint" />
          </mxGeometry>
        </mxCell>
        <mxCell id="Ak8-80K1fLozTTYAxMIB-46" style="rounded=0;orthogonalLoop=1;jettySize=auto;html=1;exitX=0.5;exitY=1;exitDx=0;exitDy=0;endArrow=none;endFill=0;entryX=0.5;entryY=0;entryDx=0;entryDy=0;" edge="1" parent="1" source="Ak8-80K1fLozTTYAxMIB-19" target="Ak8-80K1fLozTTYAxMIB-28">
          <mxGeometry relative="1" as="geometry">
            <mxPoint x="-40" y="490" as="sourcePoint" />
            <mxPoint x="-85" y="530" as="targetPoint" />
          </mxGeometry>
        </mxCell>
        <mxCell id="Ak8-80K1fLozTTYAxMIB-48" value="D&lt;span style=&quot;font-size: 10px;&quot;&gt;4&lt;/span&gt;" style="text;html=1;align=center;verticalAlign=middle;resizable=0;points=[];autosize=1;strokeColor=none;fillColor=none;" vertex="1" parent="1">
          <mxGeometry x="245" y="368" width="40" height="30" as="geometry" />
        </mxCell>
        <mxCell id="Ak8-80K1fLozTTYAxMIB-49" value="&lt;b&gt;Drop&lt;/b&gt;" style="text;html=1;align=center;verticalAlign=middle;resizable=0;points=[];autosize=1;strokeColor=none;fillColor=none;" vertex="1" parent="1">
          <mxGeometry x="40" y="540" width="50" height="30" as="geometry" />
        </mxCell>
        <mxCell id="Ak8-80K1fLozTTYAxMIB-50" value="" style="endArrow=classic;html=1;rounded=0;exitX=0.683;exitY=0.94;exitDx=0;exitDy=0;dashed=1;dashPattern=12 12;exitPerimeter=0;entryX=1;entryY=0;entryDx=0;entryDy=0;" edge="1" parent="1" source="Ak8-80K1fLozTTYAxMIB-19" target="Ak8-80K1fLozTTYAxMIB-28">
          <mxGeometry width="50" height="50" relative="1" as="geometry">
            <mxPoint x="82" y="363" as="sourcePoint" />
            <mxPoint x="190" y="490" as="targetPoint" />
          </mxGeometry>
        </mxCell>
        <mxCell id="Ak8-80K1fLozTTYAxMIB-51" value="D&lt;span style=&quot;font-size: 10px;&quot;&gt;3&lt;/span&gt;" style="text;html=1;align=center;verticalAlign=middle;resizable=0;points=[];autosize=1;strokeColor=none;fillColor=none;" vertex="1" parent="1">
          <mxGeometry x="170" y="460" width="40" height="30" as="geometry" />
        </mxCell>
        <mxCell id="Ak8-80K1fLozTTYAxMIB-52" value="" style="endArrow=classic;html=1;rounded=0;exitX=0.35;exitY=1.02;exitDx=0;exitDy=0;dashed=1;dashPattern=12 12;exitPerimeter=0;entryX=0.25;entryY=0;entryDx=0;entryDy=0;" edge="1" parent="1" source="Ak8-80K1fLozTTYAxMIB-18" target="Ak8-80K1fLozTTYAxMIB-23">
          <mxGeometry width="50" height="50" relative="1" as="geometry">
            <mxPoint x="9" y="367" as="sourcePoint" />
            <mxPoint x="-100" y="420" as="targetPoint" />
          </mxGeometry>
        </mxCell>
        <mxCell id="Ak8-80K1fLozTTYAxMIB-53" value="" style="endArrow=classic;html=1;rounded=0;exitX=0.625;exitY=1.02;exitDx=0;exitDy=0;dashed=1;dashPattern=12 12;exitPerimeter=0;entryX=0.75;entryY=0;entryDx=0;entryDy=0;" edge="1" parent="1" source="Ak8-80K1fLozTTYAxMIB-18" target="Ak8-80K1fLozTTYAxMIB-22">
          <mxGeometry width="50" height="50" relative="1" as="geometry">
            <mxPoint x="-78" y="471" as="sourcePoint" />
            <mxPoint x="-117" y="510" as="targetPoint" />
          </mxGeometry>
        </mxCell>
        <mxCell id="Ak8-80K1fLozTTYAxMIB-54" value="&lt;span style=&quot;color: rgb(0, 0, 0); font-family: Helvetica; font-size: 12px; font-style: normal; font-variant-ligatures: normal; font-variant-caps: normal; font-weight: 400; letter-spacing: normal; orphans: 2; text-align: center; text-indent: 0px; text-transform: none; widows: 2; word-spacing: 0px; -webkit-text-stroke-width: 0px; background-color: rgb(251, 251, 251); text-decoration-thickness: initial; text-decoration-style: initial; text-decoration-color: initial; float: none; display: inline !important;&quot;&gt;D&lt;/span&gt;&lt;sub style=&quot;border-color: var(--border-color); color: rgb(0, 0, 0); font-family: Helvetica; font-style: normal; font-variant-ligatures: normal; font-variant-caps: normal; font-weight: 400; letter-spacing: normal; orphans: 2; text-align: center; text-indent: 0px; text-transform: none; widows: 2; word-spacing: 0px; -webkit-text-stroke-width: 0px; background-color: rgb(251, 251, 251); text-decoration-thickness: initial; text-decoration-style: initial; text-decoration-color: initial;&quot;&gt;1&lt;/sub&gt;" style="text;whiteSpace=wrap;html=1;" vertex="1" parent="1">
          <mxGeometry x="-130" y="460" width="30" height="30" as="geometry" />
        </mxCell>
        <mxCell id="Ak8-80K1fLozTTYAxMIB-55" value="&lt;span style=&quot;border-color: var(--border-color); color: rgb(0, 0, 0); font-family: Helvetica; font-size: 12px; font-style: normal; font-variant-ligatures: normal; font-variant-caps: normal; font-weight: 400; letter-spacing: normal; orphans: 2; text-indent: 0px; text-transform: none; widows: 2; word-spacing: 0px; -webkit-text-stroke-width: 0px; text-decoration-thickness: initial; text-decoration-style: initial; text-decoration-color: initial; text-align: center; background-color: rgb(251, 251, 251); float: none; display: inline !important;&quot;&gt;D&lt;/span&gt;&lt;span style=&quot;border-color: var(--border-color); color: rgb(0, 0, 0); font-family: Helvetica; font-style: normal; font-variant-ligatures: normal; font-variant-caps: normal; font-weight: 400; letter-spacing: normal; orphans: 2; text-indent: 0px; text-transform: none; widows: 2; word-spacing: 0px; -webkit-text-stroke-width: 0px; text-decoration-thickness: initial; text-decoration-style: initial; text-decoration-color: initial; text-align: center; background-color: rgb(251, 251, 251); float: none; display: inline !important; font-size: 10px;&quot;&gt;2&lt;/span&gt;" style="text;whiteSpace=wrap;html=1;" vertex="1" parent="1">
          <mxGeometry x="-30" y="460" width="50" height="40" as="geometry" />
        </mxCell>
      </root>
    </mxGraphModel>
  </diagram>
</mxfile>
